<svg width="144" height="160" viewBox="0 0 144 160" fill="none" xmlns="http://www.w3.org/2000/svg">
<path d="M66.763 30.2013C66.6851 14.5319 66.763 1.27917 66.9188 0.733473C67.1526 0.0318588 68.5552 -0.202013 76.1912 0.187773V58.6557H66.8409L66.763 30.2013Z" fill="url(#paint0_linear_59_183994)"/>
<path d="M0.842365 45.1692C-0.404344 43.9219 -0.404345 43.61 1.7774 40.102C3.10202 38.0751 4.50457 36.438 4.89417 36.438C5.36169 36.438 12.764 40.4917 21.4131 45.559C30.14 50.5482 41.2046 56.8627 46.0356 59.5913C50.7886 62.2418 54.7625 64.9703 54.7625 65.438C54.7625 65.9837 53.8275 67.9327 52.8145 69.7257C51.7237 71.5967 50.3211 73.0778 49.6978 73.0778C49.0744 73.0778 45.1005 71.1289 40.9708 68.7122C36.7632 66.2956 26.322 60.2929 17.7509 55.3816C9.17973 50.4703 1.54364 45.8708 0.842365 45.1692Z" fill="url(#paint1_linear_59_183994)"/>
<path d="M112.034 50.8599C115.852 48.5992 123.099 44.4675 128.008 41.583C132.917 38.7766 137.436 36.5158 138.059 36.6717C138.683 36.7497 140.085 38.4648 143.202 44.2336L141.254 45.7927C140.163 46.5723 133.54 50.5481 126.449 54.6019C119.359 58.6557 109.307 64.4245 104.086 67.5428C98.7878 70.5831 93.801 73.0777 92.9439 73.0777C92.0868 73.0777 91.3855 72.61 91.3855 72.0643C91.3855 71.5966 90.6842 70.2713 89.8271 69.1799C88.97 68.0885 88.3466 66.6853 88.4246 65.9836C88.5025 65.2041 92.0868 62.5535 96.7619 59.825C101.359 57.0965 108.216 53.0427 112.034 50.8599Z" fill="url(#paint2_linear_59_183994)"/>
<path d="M61.3852 80.0937C63.5669 78.9243 66.5279 77.2093 68.0083 76.2738C69.4888 75.4163 70.9692 74.6367 71.3588 74.6367C71.6705 74.6367 76.034 76.9754 81.0988 79.8598C86.0856 82.6663 92.3971 86.4082 95.1242 88.0453C97.7735 89.6824 100.112 91.0077 100.345 91.0077C100.579 91.0077 104.475 93.1905 109.15 95.919C113.747 98.6475 122.319 103.637 128.24 107.067C134.162 110.419 139.85 113.693 140.863 114.161C141.954 114.707 142.811 115.72 142.811 116.344C142.811 116.968 141.954 118.917 140.863 120.632C139.773 122.347 138.682 123.906 138.37 124.14C137.98 124.296 135.331 123.048 132.292 121.255C129.331 119.54 124.189 116.656 120.994 114.785C117.799 112.992 109.384 108.158 102.293 104.105C95.2021 99.9728 85.7739 94.5158 81.2546 91.8652C76.7353 89.2926 72.216 87.1098 71.1251 87.1098C69.9563 87.1098 68.7875 87.4217 68.3979 87.8115C67.9304 88.2012 60.606 92.5668 52.0349 97.4781C43.4637 102.312 29.5941 110.341 21.2567 115.175C12.9194 120.008 5.59497 124.062 5.12746 124.218C4.58202 124.374 3.25739 123.048 2.16652 121.177C1.15357 119.384 0.218544 117.357 0.140625 116.578C0.140625 115.72 3.88075 113.148 12.0622 108.548C18.6075 104.728 28.1915 99.2712 33.3342 96.3088C38.4769 93.3464 43.23 90.6179 43.8533 90.2281C44.4767 89.8383 47.8272 87.8894 51.2557 85.8625C54.6841 83.8356 59.2814 81.2631 61.3852 80.0937Z" fill="url(#paint3_linear_59_183994)"/>
<path d="M66.763 131.935C66.6851 116.5 66.763 103.403 66.9188 102.857C67.1526 102.156 68.5552 101.922 76.1912 102.312V160H66.8409L66.763 131.935Z" fill="url(#paint4_linear_59_183994)"/>
<defs>
<linearGradient id="paint0_linear_59_183994" x1="143.168" y1="2.90881e-06" x2="97.6237" y2="184.181" gradientUnits="userSpaceOnUse">
<stop stop-color="#F18881"/>
<stop offset="1" stop-color="#FBC82F"/>
</linearGradient>
<linearGradient id="paint1_linear_59_183994" x1="143.167" y1="9.24298e-05" x2="97.6228" y2="184.181" gradientUnits="userSpaceOnUse">
<stop stop-color="#F18881"/>
<stop offset="1" stop-color="#FBC82F"/>
</linearGradient>
<linearGradient id="paint2_linear_59_183994" x1="143.168" y1="-2.65436e-05" x2="97.6237" y2="184.181" gradientUnits="userSpaceOnUse">
<stop stop-color="#F18881"/>
<stop offset="1" stop-color="#FBC82F"/>
</linearGradient>
<linearGradient id="paint3_linear_59_183994" x1="143.167" y1="-0.000179624" x2="97.6223" y2="184.181" gradientUnits="userSpaceOnUse">
<stop stop-color="#F18881"/>
<stop offset="1" stop-color="#FBC82F"/>
</linearGradient>
<linearGradient id="paint4_linear_59_183994" x1="143.168" y1="-6.18959e-05" x2="97.6237" y2="184.181" gradientUnits="userSpaceOnUse">
<stop stop-color="#F18881"/>
<stop offset="1" stop-color="#FBC82F"/>
</linearGradient>
</defs>
</svg>
